<mxfile host="app.diagrams.net" agent="Mozilla/5.0 (Windows NT 10.0; Win64; x64) AppleWebKit/537.36 (KHTML, like Gecko) Chrome/139.0.0.0 Safari/537.36" version="28.2.1">
  <diagram name="Page-1" id="vFo1rI6VAC2_hzMiabvV">
    <mxGraphModel dx="1869" dy="1791" grid="1" gridSize="10" guides="1" tooltips="1" connect="1" arrows="1" fold="1" page="1" pageScale="1" pageWidth="827" pageHeight="1169" math="0" shadow="0">
      <root>
        <mxCell id="0" />
        <mxCell id="1" parent="0" />
        <mxCell id="0StVpLBqCHepR9Yz6jya-88" value="" style="rounded=0;whiteSpace=wrap;html=1;fillColor=none;strokeColor=#6c8ebf;strokeWidth=2;" vertex="1" parent="1">
          <mxGeometry x="-70" y="-560" width="470" height="500" as="geometry" />
        </mxCell>
        <mxCell id="0StVpLBqCHepR9Yz6jya-1" value="" style="rounded=0;whiteSpace=wrap;html=1;fillColor=none;" vertex="1" parent="1">
          <mxGeometry x="80" y="-1100" width="140" height="350" as="geometry" />
        </mxCell>
        <mxCell id="0StVpLBqCHepR9Yz6jya-2" value="&lt;b&gt;&lt;font style=&quot;font-size: 14px;&quot;&gt;Source&lt;/font&gt;&lt;/b&gt;" style="rounded=0;whiteSpace=wrap;html=1;" vertex="1" parent="1">
          <mxGeometry x="105" y="-1120" width="90" height="40" as="geometry" />
        </mxCell>
        <mxCell id="0StVpLBqCHepR9Yz6jya-22" style="edgeStyle=orthogonalEdgeStyle;rounded=0;orthogonalLoop=1;jettySize=auto;html=1;" edge="1" parent="1" source="0StVpLBqCHepR9Yz6jya-3" target="0StVpLBqCHepR9Yz6jya-10">
          <mxGeometry relative="1" as="geometry" />
        </mxCell>
        <mxCell id="0StVpLBqCHepR9Yz6jya-21" style="edgeStyle=orthogonalEdgeStyle;rounded=0;orthogonalLoop=1;jettySize=auto;html=1;entryX=0;entryY=0.5;entryDx=0;entryDy=0;" edge="1" parent="1" source="0StVpLBqCHepR9Yz6jya-3" target="0StVpLBqCHepR9Yz6jya-11">
          <mxGeometry relative="1" as="geometry" />
        </mxCell>
        <mxCell id="0StVpLBqCHepR9Yz6jya-3" value="" style="image;aspect=fixed;html=1;points=[];align=center;fontSize=12;image=img/lib/azure2/general/Folder_Blank.svg;" vertex="1" parent="1">
          <mxGeometry x="125.36" y="-1030" width="49.29" height="40" as="geometry" />
        </mxCell>
        <mxCell id="0StVpLBqCHepR9Yz6jya-23" style="edgeStyle=orthogonalEdgeStyle;rounded=0;orthogonalLoop=1;jettySize=auto;html=1;entryX=0;entryY=0.5;entryDx=0;entryDy=0;" edge="1" parent="1" source="0StVpLBqCHepR9Yz6jya-3" target="0StVpLBqCHepR9Yz6jya-15">
          <mxGeometry relative="1" as="geometry" />
        </mxCell>
        <mxCell id="0StVpLBqCHepR9Yz6jya-5" value="" style="shape=image;html=1;verticalAlign=top;verticalLabelPosition=bottom;labelBackgroundColor=#ffffff;imageAspect=0;aspect=fixed;image=https://icons.diagrams.net/icon-cache1/Document_icons-2697/647714-excel-1207.svg" vertex="1" parent="1">
          <mxGeometry x="160" y="-1010" width="30" height="30" as="geometry" />
        </mxCell>
        <mxCell id="0StVpLBqCHepR9Yz6jya-24" style="edgeStyle=orthogonalEdgeStyle;rounded=0;orthogonalLoop=1;jettySize=auto;html=1;entryX=0;entryY=0.5;entryDx=0;entryDy=0;" edge="1" parent="1" source="0StVpLBqCHepR9Yz6jya-6" target="0StVpLBqCHepR9Yz6jya-16">
          <mxGeometry relative="1" as="geometry" />
        </mxCell>
        <mxCell id="0StVpLBqCHepR9Yz6jya-25" style="edgeStyle=orthogonalEdgeStyle;rounded=0;orthogonalLoop=1;jettySize=auto;html=1;" edge="1" parent="1" source="0StVpLBqCHepR9Yz6jya-6" target="0StVpLBqCHepR9Yz6jya-17">
          <mxGeometry relative="1" as="geometry" />
        </mxCell>
        <mxCell id="0StVpLBqCHepR9Yz6jya-27" style="edgeStyle=orthogonalEdgeStyle;rounded=0;orthogonalLoop=1;jettySize=auto;html=1;entryX=0;entryY=0.5;entryDx=0;entryDy=0;" edge="1" parent="1" source="0StVpLBqCHepR9Yz6jya-6" target="0StVpLBqCHepR9Yz6jya-18">
          <mxGeometry relative="1" as="geometry" />
        </mxCell>
        <mxCell id="0StVpLBqCHepR9Yz6jya-6" value="" style="image;aspect=fixed;html=1;points=[];align=center;fontSize=12;image=img/lib/azure2/general/Folder_Blank.svg;" vertex="1" parent="1">
          <mxGeometry x="125.36" y="-880" width="49.29" height="40" as="geometry" />
        </mxCell>
        <mxCell id="0StVpLBqCHepR9Yz6jya-8" value="" style="rounded=0;whiteSpace=wrap;html=1;fillColor=none;" vertex="1" parent="1">
          <mxGeometry x="330" y="-1100" width="140" height="350" as="geometry" />
        </mxCell>
        <mxCell id="0StVpLBqCHepR9Yz6jya-7" value="" style="shape=image;html=1;verticalAlign=top;verticalLabelPosition=bottom;labelBackgroundColor=#ffffff;imageAspect=0;aspect=fixed;image=https://icons.diagrams.net/icon-cache1/Document_icons-2697/647714-excel-1207.svg" vertex="1" parent="1">
          <mxGeometry x="160" y="-860" width="30" height="30" as="geometry" />
        </mxCell>
        <mxCell id="0StVpLBqCHepR9Yz6jya-9" value="&lt;b&gt;&lt;font style=&quot;font-size: 14px;&quot;&gt;Bronze&lt;/font&gt;&lt;/b&gt;" style="rounded=0;whiteSpace=wrap;html=1;" vertex="1" parent="1">
          <mxGeometry x="355" y="-1120" width="90" height="40" as="geometry" />
        </mxCell>
        <mxCell id="0StVpLBqCHepR9Yz6jya-39" style="edgeStyle=orthogonalEdgeStyle;rounded=0;orthogonalLoop=1;jettySize=auto;html=1;entryX=0;entryY=0.5;entryDx=0;entryDy=0;" edge="1" parent="1" source="0StVpLBqCHepR9Yz6jya-10" target="0StVpLBqCHepR9Yz6jya-33">
          <mxGeometry relative="1" as="geometry" />
        </mxCell>
        <mxCell id="0StVpLBqCHepR9Yz6jya-10" value="crm_cust_info" style="rounded=1;whiteSpace=wrap;html=1;" vertex="1" parent="1">
          <mxGeometry x="340" y="-1060" width="120" height="30" as="geometry" />
        </mxCell>
        <mxCell id="0StVpLBqCHepR9Yz6jya-40" style="edgeStyle=orthogonalEdgeStyle;rounded=0;orthogonalLoop=1;jettySize=auto;html=1;entryX=0;entryY=0.5;entryDx=0;entryDy=0;" edge="1" parent="1" source="0StVpLBqCHepR9Yz6jya-11" target="0StVpLBqCHepR9Yz6jya-34">
          <mxGeometry relative="1" as="geometry" />
        </mxCell>
        <mxCell id="0StVpLBqCHepR9Yz6jya-11" value="crm_prd_info" style="rounded=1;whiteSpace=wrap;html=1;" vertex="1" parent="1">
          <mxGeometry x="340" y="-1010" width="120" height="30" as="geometry" />
        </mxCell>
        <mxCell id="0StVpLBqCHepR9Yz6jya-41" style="edgeStyle=orthogonalEdgeStyle;rounded=0;orthogonalLoop=1;jettySize=auto;html=1;" edge="1" parent="1" source="0StVpLBqCHepR9Yz6jya-15" target="0StVpLBqCHepR9Yz6jya-35">
          <mxGeometry relative="1" as="geometry" />
        </mxCell>
        <mxCell id="0StVpLBqCHepR9Yz6jya-15" value="crm_sales_details" style="rounded=1;whiteSpace=wrap;html=1;" vertex="1" parent="1">
          <mxGeometry x="340" y="-960" width="120" height="30" as="geometry" />
        </mxCell>
        <mxCell id="0StVpLBqCHepR9Yz6jya-42" style="edgeStyle=orthogonalEdgeStyle;rounded=0;orthogonalLoop=1;jettySize=auto;html=1;" edge="1" parent="1" source="0StVpLBqCHepR9Yz6jya-16" target="0StVpLBqCHepR9Yz6jya-36">
          <mxGeometry relative="1" as="geometry" />
        </mxCell>
        <mxCell id="0StVpLBqCHepR9Yz6jya-16" value="erp_CUST_AZ12" style="rounded=1;whiteSpace=wrap;html=1;" vertex="1" parent="1">
          <mxGeometry x="340" y="-900" width="120" height="30" as="geometry" />
        </mxCell>
        <mxCell id="0StVpLBqCHepR9Yz6jya-43" style="edgeStyle=orthogonalEdgeStyle;rounded=0;orthogonalLoop=1;jettySize=auto;html=1;" edge="1" parent="1" source="0StVpLBqCHepR9Yz6jya-17" target="0StVpLBqCHepR9Yz6jya-37">
          <mxGeometry relative="1" as="geometry" />
        </mxCell>
        <mxCell id="0StVpLBqCHepR9Yz6jya-17" value="erp_LOC_A101" style="rounded=1;whiteSpace=wrap;html=1;" vertex="1" parent="1">
          <mxGeometry x="340" y="-850" width="120" height="30" as="geometry" />
        </mxCell>
        <mxCell id="0StVpLBqCHepR9Yz6jya-44" style="edgeStyle=orthogonalEdgeStyle;rounded=0;orthogonalLoop=1;jettySize=auto;html=1;" edge="1" parent="1" source="0StVpLBqCHepR9Yz6jya-18" target="0StVpLBqCHepR9Yz6jya-38">
          <mxGeometry relative="1" as="geometry" />
        </mxCell>
        <mxCell id="0StVpLBqCHepR9Yz6jya-18" value="erp_PX_CAT_G1V2" style="rounded=1;whiteSpace=wrap;html=1;" vertex="1" parent="1">
          <mxGeometry x="340" y="-800" width="120" height="30" as="geometry" />
        </mxCell>
        <mxCell id="0StVpLBqCHepR9Yz6jya-29" value="&lt;b&gt;CRM&lt;/b&gt;" style="text;html=1;align=center;verticalAlign=middle;whiteSpace=wrap;rounded=0;" vertex="1" parent="1">
          <mxGeometry x="120" y="-980" width="60" height="30" as="geometry" />
        </mxCell>
        <mxCell id="0StVpLBqCHepR9Yz6jya-30" value="&lt;b&gt;ERP&lt;/b&gt;" style="text;html=1;align=center;verticalAlign=middle;whiteSpace=wrap;rounded=0;" vertex="1" parent="1">
          <mxGeometry x="120" y="-830" width="60" height="30" as="geometry" />
        </mxCell>
        <mxCell id="0StVpLBqCHepR9Yz6jya-31" value="" style="rounded=0;whiteSpace=wrap;html=1;fillColor=none;" vertex="1" parent="1">
          <mxGeometry x="550" y="-1100" width="140" height="350" as="geometry" />
        </mxCell>
        <mxCell id="0StVpLBqCHepR9Yz6jya-32" value="&lt;b&gt;&lt;font style=&quot;font-size: 14px;&quot;&gt;Silver&lt;/font&gt;&lt;/b&gt;" style="rounded=0;whiteSpace=wrap;html=1;" vertex="1" parent="1">
          <mxGeometry x="575" y="-1120" width="90" height="40" as="geometry" />
        </mxCell>
        <mxCell id="0StVpLBqCHepR9Yz6jya-33" value="crm_cust_info" style="rounded=1;whiteSpace=wrap;html=1;" vertex="1" parent="1">
          <mxGeometry x="560" y="-1060" width="120" height="30" as="geometry" />
        </mxCell>
        <mxCell id="0StVpLBqCHepR9Yz6jya-34" value="crm_prd_info" style="rounded=1;whiteSpace=wrap;html=1;" vertex="1" parent="1">
          <mxGeometry x="560" y="-1010" width="120" height="30" as="geometry" />
        </mxCell>
        <mxCell id="0StVpLBqCHepR9Yz6jya-35" value="crm_sales_details" style="rounded=1;whiteSpace=wrap;html=1;" vertex="1" parent="1">
          <mxGeometry x="560" y="-960" width="120" height="30" as="geometry" />
        </mxCell>
        <mxCell id="0StVpLBqCHepR9Yz6jya-36" value="erp_CUST_AZ12" style="rounded=1;whiteSpace=wrap;html=1;" vertex="1" parent="1">
          <mxGeometry x="560" y="-900" width="120" height="30" as="geometry" />
        </mxCell>
        <mxCell id="0StVpLBqCHepR9Yz6jya-37" value="erp_LOC_A101" style="rounded=1;whiteSpace=wrap;html=1;" vertex="1" parent="1">
          <mxGeometry x="560" y="-850" width="120" height="30" as="geometry" />
        </mxCell>
        <mxCell id="0StVpLBqCHepR9Yz6jya-38" value="erp_PX_CAT_G1V2" style="rounded=1;whiteSpace=wrap;html=1;" vertex="1" parent="1">
          <mxGeometry x="560" y="-800" width="120" height="30" as="geometry" />
        </mxCell>
        <mxCell id="0StVpLBqCHepR9Yz6jya-52" value="&lt;b&gt;crm_prd_info&lt;/b&gt;" style="swimlane;fontStyle=0;childLayout=stackLayout;horizontal=1;startSize=30;horizontalStack=0;resizeParent=1;resizeParentMax=0;resizeLast=0;collapsible=1;marginBottom=0;whiteSpace=wrap;html=1;rounded=1;fillColor=#dae8fc;strokeColor=#6c8ebf;" vertex="1" parent="1">
          <mxGeometry y="-200" width="140" height="90" as="geometry" />
        </mxCell>
        <mxCell id="0StVpLBqCHepR9Yz6jya-59" value="&lt;div&gt;prd_id&lt;/div&gt;" style="text;strokeColor=none;fillColor=none;align=left;verticalAlign=middle;spacingLeft=4;spacingRight=4;overflow=hidden;points=[[0,0.5],[1,0.5]];portConstraint=eastwest;rotatable=0;whiteSpace=wrap;html=1;" vertex="1" parent="0StVpLBqCHepR9Yz6jya-52">
          <mxGeometry y="30" width="140" height="30" as="geometry" />
        </mxCell>
        <mxCell id="0StVpLBqCHepR9Yz6jya-78" value="&lt;div&gt;prd_key&lt;/div&gt;" style="text;strokeColor=none;fillColor=none;align=left;verticalAlign=middle;spacingLeft=4;spacingRight=4;overflow=hidden;points=[[0,0.5],[1,0.5]];portConstraint=eastwest;rotatable=0;whiteSpace=wrap;html=1;" vertex="1" parent="0StVpLBqCHepR9Yz6jya-52">
          <mxGeometry y="60" width="140" height="30" as="geometry" />
        </mxCell>
        <mxCell id="0StVpLBqCHepR9Yz6jya-56" value="&lt;b&gt;crm_cust_info&lt;/b&gt;" style="swimlane;fontStyle=0;childLayout=stackLayout;horizontal=1;startSize=30;horizontalStack=0;resizeParent=1;resizeParentMax=0;resizeLast=0;collapsible=1;marginBottom=0;whiteSpace=wrap;html=1;rounded=1;fillColor=#dae8fc;strokeColor=#6c8ebf;" vertex="1" parent="1">
          <mxGeometry y="-494" width="140" height="90" as="geometry" />
        </mxCell>
        <mxCell id="0StVpLBqCHepR9Yz6jya-76" value="&lt;div&gt;cst_id&lt;/div&gt;" style="text;strokeColor=none;fillColor=none;align=left;verticalAlign=middle;spacingLeft=4;spacingRight=4;overflow=hidden;points=[[0,0.5],[1,0.5]];portConstraint=eastwest;rotatable=0;whiteSpace=wrap;html=1;" vertex="1" parent="0StVpLBqCHepR9Yz6jya-56">
          <mxGeometry y="30" width="140" height="30" as="geometry" />
        </mxCell>
        <mxCell id="0StVpLBqCHepR9Yz6jya-53" value="&lt;div&gt;cst_key&lt;/div&gt;" style="text;strokeColor=none;fillColor=none;align=left;verticalAlign=middle;spacingLeft=4;spacingRight=4;overflow=hidden;points=[[0,0.5],[1,0.5]];portConstraint=eastwest;rotatable=0;whiteSpace=wrap;html=1;" vertex="1" parent="0StVpLBqCHepR9Yz6jya-56">
          <mxGeometry y="60" width="140" height="30" as="geometry" />
        </mxCell>
        <mxCell id="0StVpLBqCHepR9Yz6jya-60" value="&lt;b&gt;crm_sales_details&lt;/b&gt;" style="swimlane;fontStyle=0;childLayout=stackLayout;horizontal=1;startSize=30;horizontalStack=0;resizeParent=1;resizeParentMax=0;resizeLast=0;collapsible=1;marginBottom=0;whiteSpace=wrap;html=1;rounded=1;fillColor=#dae8fc;strokeColor=#6c8ebf;" vertex="1" parent="1">
          <mxGeometry x="250" y="-350" width="140" height="140" as="geometry" />
        </mxCell>
        <mxCell id="0StVpLBqCHepR9Yz6jya-77" value="&lt;div&gt;sls_ord_num&lt;/div&gt;" style="text;strokeColor=none;fillColor=none;align=left;verticalAlign=middle;spacingLeft=4;spacingRight=4;overflow=hidden;points=[[0,0.5],[1,0.5]];portConstraint=eastwest;rotatable=0;whiteSpace=wrap;html=1;" vertex="1" parent="0StVpLBqCHepR9Yz6jya-60">
          <mxGeometry y="30" width="140" height="30" as="geometry" />
        </mxCell>
        <mxCell id="0StVpLBqCHepR9Yz6jya-74" value="&lt;div&gt;sls_cust_id&lt;/div&gt;" style="text;strokeColor=none;fillColor=none;align=left;verticalAlign=middle;spacingLeft=4;spacingRight=4;overflow=hidden;points=[[0,0.5],[1,0.5]];portConstraint=eastwest;rotatable=0;whiteSpace=wrap;html=1;" vertex="1" parent="0StVpLBqCHepR9Yz6jya-60">
          <mxGeometry y="60" width="140" height="30" as="geometry" />
        </mxCell>
        <mxCell id="0StVpLBqCHepR9Yz6jya-63" value="&lt;div&gt;sls_prd_key&lt;/div&gt;" style="text;strokeColor=none;fillColor=none;align=left;verticalAlign=middle;spacingLeft=4;spacingRight=4;overflow=hidden;points=[[0,0.5],[1,0.5]];portConstraint=eastwest;rotatable=0;whiteSpace=wrap;html=1;" vertex="1" parent="0StVpLBqCHepR9Yz6jya-60">
          <mxGeometry y="90" width="140" height="30" as="geometry" />
        </mxCell>
        <mxCell id="0StVpLBqCHepR9Yz6jya-101" value="SALES" style="text;html=1;strokeColor=#9673a6;fillColor=#e1d5e7;align=center;verticalAlign=middle;whiteSpace=wrap;overflow=hidden;" vertex="1" parent="0StVpLBqCHepR9Yz6jya-60">
          <mxGeometry y="120" width="140" height="20" as="geometry" />
        </mxCell>
        <mxCell id="0StVpLBqCHepR9Yz6jya-64" value="&lt;b&gt;erp_CUST_AZ12&lt;/b&gt;" style="swimlane;fontStyle=0;childLayout=stackLayout;horizontal=1;startSize=30;horizontalStack=0;resizeParent=1;resizeParentMax=0;resizeLast=0;collapsible=1;marginBottom=0;whiteSpace=wrap;html=1;rounded=1;fillColor=#dae8fc;strokeColor=#6c8ebf;" vertex="1" parent="1">
          <mxGeometry x="560" y="-494" width="140" height="60" as="geometry" />
        </mxCell>
        <mxCell id="0StVpLBqCHepR9Yz6jya-65" value="&lt;div&gt;CID&lt;/div&gt;" style="text;strokeColor=none;fillColor=none;align=left;verticalAlign=middle;spacingLeft=4;spacingRight=4;overflow=hidden;points=[[0,0.5],[1,0.5]];portConstraint=eastwest;rotatable=0;whiteSpace=wrap;html=1;" vertex="1" parent="0StVpLBqCHepR9Yz6jya-64">
          <mxGeometry y="30" width="140" height="30" as="geometry" />
        </mxCell>
        <mxCell id="0StVpLBqCHepR9Yz6jya-66" value="&lt;b&gt;erp_LOC_A101&lt;/b&gt;" style="swimlane;fontStyle=0;childLayout=stackLayout;horizontal=1;startSize=30;horizontalStack=0;resizeParent=1;resizeParentMax=0;resizeLast=0;collapsible=1;marginBottom=0;whiteSpace=wrap;html=1;rounded=1;fillColor=#dae8fc;strokeColor=#6c8ebf;" vertex="1" parent="1">
          <mxGeometry x="560" y="-380" width="140" height="60" as="geometry" />
        </mxCell>
        <mxCell id="0StVpLBqCHepR9Yz6jya-67" value="&lt;div&gt;CID&lt;/div&gt;" style="text;strokeColor=none;fillColor=none;align=left;verticalAlign=middle;spacingLeft=4;spacingRight=4;overflow=hidden;points=[[0,0.5],[1,0.5]];portConstraint=eastwest;rotatable=0;whiteSpace=wrap;html=1;" vertex="1" parent="0StVpLBqCHepR9Yz6jya-66">
          <mxGeometry y="30" width="140" height="30" as="geometry" />
        </mxCell>
        <mxCell id="0StVpLBqCHepR9Yz6jya-68" value="&lt;b&gt;erp_PX_CAT_G1V2&lt;/b&gt;" style="swimlane;fontStyle=0;childLayout=stackLayout;horizontal=1;startSize=30;horizontalStack=0;resizeParent=1;resizeParentMax=0;resizeLast=0;collapsible=1;marginBottom=0;whiteSpace=wrap;html=1;rounded=1;fillColor=#dae8fc;strokeColor=#6c8ebf;" vertex="1" parent="1">
          <mxGeometry x="560" y="-190" width="140" height="60" as="geometry" />
        </mxCell>
        <mxCell id="0StVpLBqCHepR9Yz6jya-69" value="&lt;div&gt;ID&lt;/div&gt;" style="text;strokeColor=none;fillColor=none;align=left;verticalAlign=middle;spacingLeft=4;spacingRight=4;overflow=hidden;points=[[0,0.5],[1,0.5]];portConstraint=eastwest;rotatable=0;whiteSpace=wrap;html=1;" vertex="1" parent="0StVpLBqCHepR9Yz6jya-68">
          <mxGeometry y="30" width="140" height="30" as="geometry" />
        </mxCell>
        <mxCell id="0StVpLBqCHepR9Yz6jya-71" value="Customer Information" style="text;html=1;align=center;verticalAlign=middle;resizable=0;points=[];autosize=1;strokeColor=none;fillColor=none;" vertex="1" parent="1">
          <mxGeometry y="-524" width="140" height="30" as="geometry" />
        </mxCell>
        <mxCell id="0StVpLBqCHepR9Yz6jya-73" value="Current &amp;amp; History of Product Information" style="text;html=1;align=center;verticalAlign=middle;resizable=0;points=[];autosize=1;strokeColor=none;fillColor=none;" vertex="1" parent="1">
          <mxGeometry x="-50" y="-230" width="240" height="30" as="geometry" />
        </mxCell>
        <mxCell id="0StVpLBqCHepR9Yz6jya-89" value="" style="rounded=0;whiteSpace=wrap;html=1;fillColor=none;strokeColor=#FFCCCC;strokeWidth=2;" vertex="1" parent="1">
          <mxGeometry x="440" y="-560" width="320" height="500" as="geometry" />
        </mxCell>
        <mxCell id="0StVpLBqCHepR9Yz6jya-83" style="edgeStyle=orthogonalEdgeStyle;rounded=0;orthogonalLoop=1;jettySize=auto;html=1;entryX=0;entryY=0.5;entryDx=0;entryDy=0;" edge="1" parent="1" source="0StVpLBqCHepR9Yz6jya-78" target="0StVpLBqCHepR9Yz6jya-63">
          <mxGeometry relative="1" as="geometry">
            <Array as="points">
              <mxPoint x="200" y="-125" />
              <mxPoint x="200" y="-245" />
            </Array>
          </mxGeometry>
        </mxCell>
        <mxCell id="0StVpLBqCHepR9Yz6jya-87" style="edgeStyle=orthogonalEdgeStyle;rounded=0;orthogonalLoop=1;jettySize=auto;html=1;entryX=0;entryY=0.5;entryDx=0;entryDy=0;" edge="1" parent="1" source="0StVpLBqCHepR9Yz6jya-76" target="0StVpLBqCHepR9Yz6jya-74">
          <mxGeometry relative="1" as="geometry">
            <Array as="points">
              <mxPoint x="200" y="-449" />
              <mxPoint x="200" y="-275" />
            </Array>
          </mxGeometry>
        </mxCell>
        <mxCell id="0StVpLBqCHepR9Yz6jya-90" value="&lt;span style=&quot;text-wrap-mode: nowrap;&quot;&gt;Sales Information&lt;/span&gt;" style="text;html=1;align=center;verticalAlign=middle;whiteSpace=wrap;rounded=0;" vertex="1" parent="1">
          <mxGeometry x="290" y="-380" width="60" height="30" as="geometry" />
        </mxCell>
        <mxCell id="0StVpLBqCHepR9Yz6jya-91" value="&lt;span style=&quot;text-wrap-mode: nowrap;&quot;&gt;Customer Personal Details&lt;/span&gt;" style="text;html=1;align=center;verticalAlign=middle;whiteSpace=wrap;rounded=0;" vertex="1" parent="1">
          <mxGeometry x="600" y="-520" width="60" height="30" as="geometry" />
        </mxCell>
        <mxCell id="0StVpLBqCHepR9Yz6jya-92" value="&lt;span style=&quot;text-wrap-mode: nowrap;&quot;&gt;Customer Location&lt;/span&gt;" style="text;html=1;align=center;verticalAlign=middle;whiteSpace=wrap;rounded=0;" vertex="1" parent="1">
          <mxGeometry x="600" y="-404" width="60" height="24" as="geometry" />
        </mxCell>
        <mxCell id="0StVpLBqCHepR9Yz6jya-93" value="&lt;span style=&quot;text-wrap-mode: nowrap;&quot;&gt;Product Category&lt;/span&gt;" style="text;html=1;align=center;verticalAlign=middle;whiteSpace=wrap;rounded=0;" vertex="1" parent="1">
          <mxGeometry x="600" y="-220" width="60" height="30" as="geometry" />
        </mxCell>
        <mxCell id="0StVpLBqCHepR9Yz6jya-80" style="edgeStyle=orthogonalEdgeStyle;rounded=0;orthogonalLoop=1;jettySize=auto;html=1;" edge="1" parent="1" source="0StVpLBqCHepR9Yz6jya-67" target="0StVpLBqCHepR9Yz6jya-53">
          <mxGeometry relative="1" as="geometry">
            <Array as="points">
              <mxPoint x="480" y="-335" />
              <mxPoint x="480" y="-419" />
            </Array>
          </mxGeometry>
        </mxCell>
        <mxCell id="0StVpLBqCHepR9Yz6jya-79" style="edgeStyle=orthogonalEdgeStyle;rounded=0;orthogonalLoop=1;jettySize=auto;html=1;exitX=0;exitY=0.5;exitDx=0;exitDy=0;" edge="1" parent="1" source="0StVpLBqCHepR9Yz6jya-65" target="0StVpLBqCHepR9Yz6jya-53">
          <mxGeometry relative="1" as="geometry">
            <Array as="points">
              <mxPoint x="480" y="-450" />
              <mxPoint x="480" y="-419" />
            </Array>
          </mxGeometry>
        </mxCell>
        <mxCell id="0StVpLBqCHepR9Yz6jya-81" style="edgeStyle=orthogonalEdgeStyle;rounded=0;orthogonalLoop=1;jettySize=auto;html=1;exitX=0;exitY=0.5;exitDx=0;exitDy=0;" edge="1" parent="1" source="0StVpLBqCHepR9Yz6jya-69" target="0StVpLBqCHepR9Yz6jya-78">
          <mxGeometry relative="1" as="geometry" />
        </mxCell>
        <mxCell id="0StVpLBqCHepR9Yz6jya-94" value="&lt;b&gt;CRM&lt;/b&gt;" style="rounded=1;whiteSpace=wrap;html=1;fillColor=#dae8fc;strokeColor=#6c8ebf;" vertex="1" parent="1">
          <mxGeometry x="105" y="-590" width="120" height="60" as="geometry" />
        </mxCell>
        <mxCell id="0StVpLBqCHepR9Yz6jya-95" value="&lt;b&gt;ERP&lt;/b&gt;" style="rounded=1;whiteSpace=wrap;html=1;fillColor=#ffe6cc;strokeColor=#d79b00;" vertex="1" parent="1">
          <mxGeometry x="540" y="-590" width="120" height="60" as="geometry" />
        </mxCell>
        <mxCell id="0StVpLBqCHepR9Yz6jya-96" value="PRODUCT" style="text;html=1;strokeColor=#b85450;fillColor=#f8cecc;align=center;verticalAlign=middle;whiteSpace=wrap;overflow=hidden;" vertex="1" parent="1">
          <mxGeometry x="560" y="-130" width="140" height="20" as="geometry" />
        </mxCell>
        <mxCell id="0StVpLBqCHepR9Yz6jya-97" value="PRODUCT" style="text;html=1;strokeColor=#b85450;fillColor=#f8cecc;align=center;verticalAlign=middle;whiteSpace=wrap;overflow=hidden;" vertex="1" parent="1">
          <mxGeometry y="-110" width="140" height="20" as="geometry" />
        </mxCell>
        <mxCell id="0StVpLBqCHepR9Yz6jya-98" value="CUSTOMER" style="text;html=1;strokeColor=#82b366;fillColor=#d5e8d4;align=center;verticalAlign=middle;whiteSpace=wrap;overflow=hidden;" vertex="1" parent="1">
          <mxGeometry x="560" y="-320" width="140" height="20" as="geometry" />
        </mxCell>
        <mxCell id="0StVpLBqCHepR9Yz6jya-99" value="CUSTOMER" style="text;html=1;strokeColor=#82b366;fillColor=#d5e8d4;align=center;verticalAlign=middle;whiteSpace=wrap;overflow=hidden;" vertex="1" parent="1">
          <mxGeometry x="560" y="-434" width="140" height="20" as="geometry" />
        </mxCell>
        <mxCell id="0StVpLBqCHepR9Yz6jya-100" value="CUSTOMER" style="text;html=1;strokeColor=#82b366;fillColor=#d5e8d4;align=center;verticalAlign=middle;whiteSpace=wrap;overflow=hidden;" vertex="1" parent="1">
          <mxGeometry y="-404" width="140" height="20" as="geometry" />
        </mxCell>
        <mxCell id="0StVpLBqCHepR9Yz6jya-102" value="&lt;b&gt;&lt;font style=&quot;font-size: 16px;&quot;&gt;Integration Model&lt;/font&gt;&lt;/b&gt;" style="text;html=1;align=center;verticalAlign=middle;whiteSpace=wrap;rounded=0;" vertex="1" parent="1">
          <mxGeometry x="-70" y="-610" width="140" height="30" as="geometry" />
        </mxCell>
        <mxCell id="0StVpLBqCHepR9Yz6jya-103" value="&lt;b&gt;&lt;font style=&quot;font-size: 16px;&quot;&gt;Data Flow Diagram&lt;/font&gt;&lt;/b&gt;" style="text;html=1;align=center;verticalAlign=middle;whiteSpace=wrap;rounded=0;" vertex="1" parent="1">
          <mxGeometry x="-70" y="-1160" width="160" height="30" as="geometry" />
        </mxCell>
      </root>
    </mxGraphModel>
  </diagram>
</mxfile>
